<?xml version="1.0" standalone="no"?>
<!DOCTYPE svg PUBLIC "-//W3C//DTD SVG 20010904//EN"
 "http://www.w3.org/TR/2001/REC-SVG-20010904/DTD/svg10.dtd">
<svg version="1.0" xmlns="http://www.w3.org/2000/svg"
 width="256.000000pt" height="256.000000pt" viewBox="0 0 256.000000 256.000000"
 preserveAspectRatio="xMidYMid meet">
<metadata>
Created by potrace 1.14, written by Peter Selinger 2001-2017
</metadata>
<g transform="translate(0.000000,256.000000) scale(0.100000,-0.100000)"
fill="#000000" stroke="none">
<path d="M807 2444 c-1 -1 -24 -5 -52 -9 -69 -9 -176 -47 -243 -87 -53 -32
-168 -137 -205 -188 -24 -33 -87 -163 -93 -192 -21 -101 -25 -144 -21 -218 4
-73 9 -105 21 -155 2 -5 8 -23 14 -38 7 -16 12 -32 12 -36 0 -4 22 -43 50 -88
52 -84 132 -166 213 -215 26 -17 47 -33 47 -37 0 -14 -48 -30 -75 -25 -52 9
-202 -52 -296 -121 -114 -82 -172 -177 -173 -282 -1 -71 19 -108 75 -134 75
-37 158 6 184 94 9 29 21 59 28 68 11 14 101 79 109 79 2 0 4 -136 5 -302 0
-378 1 -383 61 -420 28 -17 50 -22 102 -21 123 1 161 44 164 183 0 49 4 92 8
96 6 5 138 9 211 5 15 -1 17 -12 17 -91 0 -102 12 -136 61 -171 25 -18 45 -22
105 -22 64 0 78 4 108 27 22 16 39 40 46 64 6 21 10 157 10 325 0 158 3 287 7
287 3 0 30 -12 58 -26 68 -33 148 -54 208 -54 42 0 47 -2 48 -22 0 -13 1 -138
0 -278 0 -314 0 -320 39 -320 16 0 32 6 36 12 5 7 8 152 8 322 l1 310 26 15
c91 51 93 189 4 237 l-31 16 0 161 1 161 97 -3 c86 -2 99 0 117 18 26 26 57
27 71 2 9 -18 23 -20 237 -21 336 -1 333 -4 333 303 0 217 -5 243 -58 282 -26
19 -43 20 -415 20 -359 0 -388 1 -384 17 6 20 -19 58 -38 58 -41 0 -41 -7 -42
-515 -1 -267 -3 -488 -6 -491 -2 -3 -20 -7 -39 -10 -41 -7 -109 22 -187 80
-47 35 -60 40 -110 41 -40 1 -67 8 -95 25 -35 21 -37 25 -22 34 260 155 389
415 343 696 -43 260 -255 483 -511 537 -58 12 -182 23 -189 17z"/>
</g>
</svg>
